<svg width="16" height="16" viewBox="0 0 16 16" fill="none" xmlns="http://www.w3.org/2000/svg">
<rect width="16" height="16" rx="8" fill="#E5E5E5"/>
<path d="M11 4.99997C10.9062 4.90623 10.7791 4.85358 10.6465 4.85358C10.5139 4.85358 10.3868 4.90623 10.293 4.99997L8 7.29297L5.707 4.99997C5.61324 4.90623 5.48608 4.85358 5.3535 4.85358C5.22092 4.85358 5.09376 4.90623 5 4.99997C4.90626 5.09373 4.85361 5.22089 4.85361 5.35347C4.85361 5.48605 4.90626 5.61321 5 5.70697L7.293 7.99997L5 10.293C4.90626 10.3867 4.85361 10.5139 4.85361 10.6465C4.85361 10.7791 4.90626 10.9062 5 11C5.09376 11.0937 5.22092 11.1464 5.3535 11.1464C5.48608 11.1464 5.61324 11.0937 5.707 11L8 8.70697L10.293 11C10.3868 11.0937 10.5139 11.1464 10.6465 11.1464C10.7791 11.1464 10.9062 11.0937 11 11C11.0937 10.9062 11.1464 10.7791 11.1464 10.6465C11.1464 10.5139 11.0937 10.3867 11 10.293L8.707 7.99997L11 5.70697C11.0937 5.61321 11.1464 5.48605 11.1464 5.35347C11.1464 5.22089 11.0937 5.09373 11 4.99997V4.99997Z" fill="#858386"/>
</svg>
