<svg width="18" height="18" viewBox="0 0 18 18" fill="none" xmlns="http://www.w3.org/2000/svg">
<mask id="mask0_62_847" style="mask-type:luminance" maskUnits="userSpaceOnUse" x="0" y="0" width="18" height="18">
<path d="M18 0H0V18H18V0Z" fill="white"/>
</mask>
<g mask="url(#mask0_62_847)">
<path d="M17.64 9.20464C17.64 8.56645 17.5828 7.95283 17.4764 7.36369H9V10.8451H13.8436C13.635 11.9701 13.001 12.9233 12.0478 13.5615V15.8196H14.9564C16.6582 14.2528 17.64 11.9455 17.64 9.20464Z" fill="#4285F4"/>
<path d="M9.00011 17.9999C11.4301 17.9999 13.4674 17.194 14.9565 15.8195L12.0479 13.5613C11.2419 14.1013 10.211 14.4203 9.00011 14.4203C6.65597 14.4203 4.67192 12.8372 3.96416 10.7099H0.957352V13.0417C2.4383 15.9831 5.48192 17.9999 9.00011 17.9999Z" fill="#34A853"/>
<path d="M3.96405 10.7099C3.78405 10.1699 3.68181 9.59313 3.68181 8.99994C3.68181 8.40675 3.78405 7.82994 3.96405 7.28994V4.95813H0.957241C0.34776 6.17313 0 7.5477 0 8.99994C0 10.4522 0.34776 11.8267 0.957241 13.0417L3.96405 10.7099Z" fill="#FBBC04"/>
<path d="M9.00011 3.57957C10.3215 3.57957 11.5078 4.03362 12.4405 4.92543L15.0219 2.34405C13.4633 0.89181 11.426 0 9.00011 0C5.48192 0 2.4383 2.01681 0.957352 4.95819L3.96416 7.29C4.67192 5.16276 6.65597 3.57957 9.00011 3.57957Z" fill="#E94235"/>
</g>
</svg>
