<svg width="62" height="36" viewBox="0 0 62 36" fill="none" xmlns="http://www.w3.org/2000/svg">
<path d="M39.0576 28.1451C39.0576 28.7921 39.3548 29.3485 39.949 29.8144C40.5432 30.2802 41.4346 30.6167 42.6231 30.8237C44.2573 31.0566 45.6191 31.1731 46.7085 31.1731C47.8475 31.1731 49.2093 31.0566 50.7939 30.8237C51.9824 30.6167 52.8738 30.2802 53.468 29.8144C54.0622 29.3485 54.3594 28.7921 54.3594 28.1451V27.8345C54.3594 27.1099 54.0622 26.5017 53.468 26.0099C52.8985 25.4923 52.131 25.2335 51.1653 25.2335H42.2517C41.286 25.2335 40.5061 25.4923 39.9119 26.0099C39.3424 26.5017 39.0576 27.1099 39.0576 27.8345V28.1451ZM34.6008 27.8345C34.6008 26.5922 34.9227 25.4535 35.5665 24.4183C36.235 23.3572 37.1511 22.5161 38.3148 21.8949C39.4786 21.2738 40.7908 20.9632 42.2517 20.9632H51.1653C52.6262 20.9632 53.9384 21.2738 55.1022 21.8949C56.2659 22.5161 57.1696 23.3572 57.8134 24.4183C58.4819 25.4535 58.8162 26.5922 58.8162 27.8345V28.1451C58.8162 29.9826 58.1353 31.4966 56.7735 32.6871C55.4117 33.9035 53.6661 34.6799 51.5367 35.0164C49.8035 35.2752 48.1941 35.4046 46.7085 35.4046C45.2477 35.4046 43.6383 35.2752 41.8803 35.0164C39.7509 34.6799 38.0053 33.9035 36.6435 32.6871C35.2817 31.4966 34.6008 29.9826 34.6008 28.1451V27.8345ZM58.2962 0V7.99708H61.8617V12.6556H58.2962V20.2645H53.8394V0H58.2962ZM35.6779 13.005C35.6779 14.739 36.0121 15.5283 36.6807 15.373C37.2749 15.1401 37.572 13.7814 37.572 11.2969V10.6369C36.8787 10.6887 36.3835 10.8828 36.0864 11.2192C35.8141 11.5298 35.6779 12.125 35.6779 13.005ZM45.8914 13.005C45.8914 14.739 46.2257 15.5283 46.8942 15.373C47.4884 15.1401 47.7856 13.7814 47.7856 11.2969V10.6369C47.0923 10.6887 46.5971 10.8828 46.3 11.2192C46.0276 11.5298 45.8914 12.125 45.8914 13.005ZM31.9639 1.00934H35.6779V6.75482C36.1978 6.57365 36.7797 6.44425 37.4235 6.36661C37.2501 3.95972 37.0397 2.17397 36.7921 1.00934H40.5804C40.7785 2.32925 40.9394 3.9209 41.0632 5.7843C41.2118 7.62182 41.286 9.45933 41.286 11.2969C41.286 14.1437 40.8651 16.253 40.0233 17.6246C39.1814 18.9704 38.0177 19.6433 36.5321 19.6433C35.2941 19.6433 34.217 19.0998 33.3009 18.0128C32.4095 16.9259 31.9639 15.2566 31.9639 13.005V1.00934ZM42.1774 1.00934H45.8914V6.75482C46.4114 6.57365 46.9932 6.44425 47.637 6.36661C47.4637 3.95972 47.2532 2.17397 47.0056 1.00934H50.7939C50.992 2.32925 51.1529 3.9209 51.2767 5.7843C51.4253 7.62182 51.4996 9.45933 51.4996 11.2969C51.4996 14.1437 51.0787 16.253 50.2368 17.6246C49.395 18.9704 48.2312 19.6433 46.7456 19.6433C45.5076 19.6433 44.4306 19.0998 43.5144 18.0128C42.6231 16.9259 42.1774 15.2566 42.1774 13.005V1.00934Z" fill="#FFAC39"/>
<path d="M29.4982 33.7353C27.6164 34.227 25.6604 34.6023 23.63 34.8611C21.6245 35.1458 19.6808 35.2881 17.799 35.2881C15.5706 35.2881 13.6146 35.0681 11.9309 34.6281C10.272 34.2141 9.04634 33.5541 8.25402 32.6483C7.53598 31.8201 7.02839 30.8755 6.73127 29.8144C6.43415 28.7533 6.28559 27.5498 6.28559 26.204C6.28559 25.1429 6.37225 23.7713 6.54557 22.089L11.0024 22.5549C10.8538 24.0301 10.7795 25.2723 10.7795 26.2817C10.7795 28.0415 11.0271 29.1803 11.5224 29.6979C11.8938 30.112 12.6242 30.4226 13.7136 30.6296C14.8031 30.8625 16.1277 30.979 17.6876 30.979C19.4951 30.979 21.4388 30.8366 23.5186 30.552C25.6232 30.2673 27.6164 29.8532 29.4982 29.3097V33.7353ZM28.5697 0V23.7583H24.1129V0H28.5697ZM22.2559 0.388207V23.7583H17.799V12.6556H15.6449C15.323 14.5707 14.4936 16.1106 13.1565 17.2753C11.8442 18.4399 10.2224 19.0222 8.29116 19.0222H7.9569C6.52081 19.0222 5.23329 18.6857 4.09432 18.0128C2.95536 17.3141 2.064 16.3565 1.42023 15.1401C0.776471 13.9237 0.45459 12.5521 0.45459 11.0251V9.00642C0.45459 7.45359 0.776471 6.08192 1.42023 4.89142C2.064 3.67503 2.95536 2.7304 4.09432 2.0575C5.23329 1.35873 6.52081 1.00934 7.9569 1.00934H8.29116C10.2967 1.00934 11.9804 1.65635 13.3422 2.95038C14.7288 4.24441 15.5335 5.92664 15.7563 7.99708H17.799V0.388207H22.2559ZM4.91141 11.0251C4.91141 12.1897 5.18377 13.1085 5.72849 13.7814C6.27321 14.4284 7.01601 14.7519 7.9569 14.7519H8.29116C9.23204 14.7519 9.97485 14.4284 10.5196 13.7814C11.0643 13.1085 11.3367 12.1897 11.3367 11.0251V9.00642C11.3367 7.8418 11.0643 6.93598 10.5196 6.28897C9.97485 5.61607 9.23204 5.27963 8.29116 5.27963H7.9569C7.01601 5.27963 6.27321 5.61607 5.72849 6.28897C5.18377 6.93598 4.91141 7.8418 4.91141 9.00642V11.0251Z" fill="#FFAC39"/>
</svg>
