<svg width="207" height="145" viewBox="0 0 207 145" fill="none" xmlns="http://www.w3.org/2000/svg">
<g filter="url(#filter0_f_820_957)">
<path d="M166.212 72.2382C166.212 89.7943 137.97 104.026 103.133 104.026C68.2951 104.026 40.0537 89.7943 40.0537 72.2382C40.0537 54.6822 68.2951 40.4502 103.133 40.4502C137.97 40.4502 166.212 54.6822 166.212 72.2382Z" fill="#A2A2A2" fill-opacity="0.2"/>
</g>
<path fill-rule="evenodd" clip-rule="evenodd" d="M156.539 30.7696C164.943 19.78 157.09 3.76001 143.206 4.00273C121.885 4.37545 97.6254 4.93218 91.3578 5.609C88.8841 5.87613 86.4846 6.1432 84.2374 6.39846C75.8067 7.35605 69.4905 14.5681 69.4905 23.119V25.9248C69.4905 30.6938 71.4333 34.9682 74.5368 38.0323V68.3371C74.5368 73.955 79.0554 78.5093 84.6294 78.5093H133.707C136.222 78.5093 138.646 77.5632 140.505 75.8564L153.244 64.1582C155.343 62.2306 156.539 59.501 156.539 56.6389V30.7696Z" fill="#858386"/>
<path fill-rule="evenodd" clip-rule="evenodd" d="M85.4705 6.54297C76.645 6.54297 69.4905 13.7538 69.4905 22.6489V26.8873C69.4905 31.4482 71.3714 35.5663 74.3942 38.4966V68.7416C74.3942 74.3596 78.9128 78.9138 84.4868 78.9138H132.454C138.028 78.9138 142.547 74.3596 142.547 68.7416V37.901C145.226 35.0207 146.867 31.1471 146.867 26.8873V22.6489C146.867 13.7538 139.713 6.54297 130.887 6.54297H85.4705Z" fill="#858386"/>
<path fill-rule="evenodd" clip-rule="evenodd" d="M91.4423 13.2529C83.9637 13.2529 77.9011 19.3633 77.9011 26.9008C77.9011 30.6107 79.3698 33.9749 81.7532 36.435V61.6423C81.7532 66.3239 85.5187 70.1191 90.1637 70.1191H126.275C130.92 70.1191 134.685 66.3239 134.685 61.6423V35.9438C136.8 33.536 138.084 30.3695 138.084 26.9008C138.084 19.3633 132.021 13.2529 124.543 13.2529H91.4423Z" fill="#F5F5F5"/>
<path fill-rule="evenodd" clip-rule="evenodd" d="M70.7804 16.6843C61.9602 16.9932 55.0585 24.4502 55.365 33.3399L55.5111 37.5757C55.6682 42.1339 57.69 46.1837 60.8119 49.0064L61.854 79.2331C62.0476 84.8477 66.7204 89.241 72.2911 89.0459L120.23 87.3669C125.8 87.1718 130.159 82.4621 129.966 76.8476L128.903 46.0256C131.482 43.0532 132.988 39.1245 132.841 34.8673L132.695 30.6315C132.389 21.7418 124.99 14.7857 116.17 15.0946L70.7804 16.6843Z" fill="#ADACAF"/>
<path fill-rule="evenodd" clip-rule="evenodd" d="M76.9798 23.1813C69.5057 23.4431 63.6573 29.7619 63.9171 37.2949C64.0449 41.0026 65.6286 44.3134 68.0953 46.6885L68.9639 71.8806C69.1252 76.5594 73.0192 80.2205 77.6614 80.0579L113.751 78.7939C118.393 78.6313 122.025 74.7066 121.864 70.0278L120.978 44.3448C123.009 41.8644 124.183 38.6549 124.064 35.1883C123.804 27.6554 117.534 21.7609 110.06 22.0227L76.9798 23.1813Z" fill="#F5F5F5"/>
<path fill-rule="evenodd" clip-rule="evenodd" d="M55.8988 29.3751C47.1181 30.2706 40.7203 38.1708 41.6088 47.0207L42.0321 51.2376C42.4877 55.7753 44.7705 59.6816 48.0705 62.2903L51.0916 92.3817C51.6528 97.971 56.6033 102.044 62.149 101.478L109.873 96.6109C115.419 96.0453 119.459 91.0557 118.898 85.4663L115.818 54.7824C118.196 51.6449 119.441 47.6245 119.016 43.3863L118.592 39.1695C117.704 30.3196 109.866 23.8713 101.085 24.7668L55.8988 29.3751Z" fill="#ADACAF"/>
<path fill-rule="evenodd" clip-rule="evenodd" d="M62.5104 35.4453C55.0699 36.2042 49.6484 42.8987 50.4013 50.3979C50.7719 54.089 52.5692 57.287 55.1862 59.4928L57.704 84.572C58.1717 89.2298 62.2971 92.6236 66.9185 92.1523L102.846 88.4882C107.467 88.0169 110.835 83.8589 110.367 79.2011L107.8 53.6332C109.664 51.023 110.625 47.7423 110.278 44.2913C109.526 36.792 102.883 31.3279 95.4429 32.0867L62.5104 35.4453Z" fill="#F5F5F5"/>
<path fill-rule="evenodd" clip-rule="evenodd" d="M85.3166 47.8846C86.8168 49.6715 86.5957 52.3459 84.8227 53.8579L73.889 63.1824C72.1161 64.6944 69.4626 64.4715 67.9624 62.6846C66.4622 60.8977 66.6834 58.2233 68.4563 56.7113L79.39 47.3868C81.163 45.8748 83.8164 46.0976 85.3166 47.8846Z" fill="#ADACAF"/>
<path fill-rule="evenodd" clip-rule="evenodd" d="M97.0851 54.6588C98.5892 56.4423 98.374 59.1172 96.6044 60.6332L79.7834 75.0438C78.0138 76.5598 75.3599 76.3429 73.8557 74.5593C72.3515 72.7758 72.5667 70.101 74.3363 68.5849L91.1574 54.1744C92.927 52.6583 95.5809 52.8752 97.0851 54.6588Z" fill="#ADACAF"/>
<defs>
<filter id="filter0_f_820_957" x="0.0537109" y="0.450195" width="206.158" height="143.576" filterUnits="userSpaceOnUse" color-interpolation-filters="sRGB">
<feFlood flood-opacity="0" result="BackgroundImageFix"/>
<feBlend mode="normal" in="SourceGraphic" in2="BackgroundImageFix" result="shape"/>
<feGaussianBlur stdDeviation="20" result="effect1_foregroundBlur_820_957"/>
</filter>
</defs>
</svg>
