<svg width="40" height="40" viewBox="0 0 40 40" fill="none" xmlns="http://www.w3.org/2000/svg">
<path fill-rule="evenodd" clip-rule="evenodd" d="M8.95833 1.25C4.01078 1.25 0 5.26079 0 10.2083V10.9873C0 13.4156 0.966135 15.6182 2.53498 17.2317V31.2863C2.53498 35.1983 5.70628 38.3696 9.6183 38.3696H30.6833C34.5954 38.3696 37.7667 35.1983 37.7667 31.2863V16.9058C39.1568 15.3274 40 13.2558 40 10.9873V10.2083C40 5.26078 35.9892 1.25 31.0417 1.25H8.95833Z" fill="#FFF3DF"/>
<path fill-rule="evenodd" clip-rule="evenodd" d="M7.53498 15.2016V31.2863C7.53498 32.4369 8.46772 33.3696 9.6183 33.3696H30.6833C31.8339 33.3696 32.7667 32.4368 32.7667 31.2863V15.0178L34.0145 13.601C34.6314 12.9007 35 11.9931 35 10.9873V10.2083C35 8.02221 33.2278 6.25 31.0417 6.25H8.95833C6.77221 6.25 5 8.02221 5 10.2083V10.9873C5 12.0621 5.42176 13.0282 6.1198 13.7461L7.53498 15.2016ZM0 10.2083C0 5.26079 4.01078 1.25 8.95833 1.25H31.0417C35.9892 1.25 40 5.26078 40 10.2083V10.9873C40 13.2558 39.1568 15.3274 37.7667 16.9058V31.2863C37.7667 35.1983 34.5954 38.3696 30.6833 38.3696H9.6183C5.70628 38.3696 2.53498 35.1983 2.53498 31.2863V17.2317C0.966135 15.6182 0 13.4156 0 10.9873V10.2083Z" fill="#FFAC39"/>
<path fill-rule="evenodd" clip-rule="evenodd" d="M21.333 12.0909C22.3093 13.0672 22.3093 14.6502 21.333 15.6265L16.1156 20.8439C15.1393 21.8202 13.5564 21.8202 12.5801 20.8439C11.6038 19.8676 11.6038 18.2846 12.5801 17.3083L17.7975 12.0909C18.7738 11.1146 20.3567 11.1146 21.333 12.0909Z" fill="#FFAC39"/>
<path fill-rule="evenodd" clip-rule="evenodd" d="M27.8547 16.004C28.831 16.9803 28.831 18.5632 27.8547 19.5395L20.8982 26.496C19.9219 27.4723 18.339 27.4723 17.3627 26.496C16.3864 25.5197 16.3864 23.9368 17.3627 22.9605L24.3192 16.004C25.2955 15.0277 26.8784 15.0277 27.8547 16.004Z" fill="#FFAC39"/>
</svg>
