<svg width="34" height="34" viewBox="0 0 34 34" fill="none" xmlns="http://www.w3.org/2000/svg">
<g filter="url(#filter0_d_64_356)">
<rect x="1" y="1" width="32" height="32" rx="16" fill="#E5E5E5" shape-rendering="crispEdges"/>
<path d="M17 17C19.2091 17 21 15.2091 21 13C21 10.7909 19.2091 9 17 9C14.7909 9 13 10.7909 13 13C13 15.2091 14.7909 17 17 17Z" fill="#ADACAF"/>
<path d="M17 18.3327C13.6878 18.3364 11.0037 21.0205 11 24.3327C11 24.7009 11.2985 24.9994 11.6667 24.9994H22.3333C22.7015 24.9994 23 24.7009 23 24.3327C22.9963 21.0205 20.3122 18.3364 17 18.3327Z" fill="#ADACAF"/>
</g>
<defs>
<filter id="filter0_d_64_356" x="0" y="0" width="34" height="34" filterUnits="userSpaceOnUse" color-interpolation-filters="sRGB">
<feFlood flood-opacity="0" result="BackgroundImageFix"/>
<feColorMatrix in="SourceAlpha" type="matrix" values="0 0 0 0 0 0 0 0 0 0 0 0 0 0 0 0 0 0 127 0" result="hardAlpha"/>
<feOffset/>
<feGaussianBlur stdDeviation="0.5"/>
<feComposite in2="hardAlpha" operator="out"/>
<feColorMatrix type="matrix" values="0 0 0 0 0 0 0 0 0 0 0 0 0 0 0 0 0 0 0.12 0"/>
<feBlend mode="normal" in2="BackgroundImageFix" result="effect1_dropShadow_64_356"/>
<feBlend mode="normal" in="SourceGraphic" in2="effect1_dropShadow_64_356" result="shape"/>
</filter>
</defs>
</svg>
