<svg width="230" height="159" viewBox="0 0 230 159" fill="none" xmlns="http://www.w3.org/2000/svg">
<g filter="url(#filter0_f_736_907)">
<ellipse cx="114.707" cy="80.6453" rx="74.6434" ry="37.5677" fill="#EEB44A" fill-opacity="0.46"/>
</g>
<path fill-rule="evenodd" clip-rule="evenodd" d="M177.905 31.6387C187.913 18.6373 178.544 -0.283709 162.013 0.00522323C136.81 0.445702 108.179 1.10288 100.773 1.90155C97.8709 2.21459 95.0547 2.52756 92.4149 2.82692C82.3979 3.96283 74.8971 12.4676 74.8971 22.5489V25.9369C74.8971 31.5485 77.1953 36.5793 80.8686 40.1919V76.0564C80.8686 82.6838 86.2412 88.0564 92.8686 88.0564H150.843C153.846 88.0564 156.74 86.9302 158.953 84.9003L174.016 71.0866C176.494 68.8137 177.905 65.6053 177.905 62.2426V31.6387Z" fill="#FCC659"/>
<path fill-rule="evenodd" clip-rule="evenodd" d="M93.8971 3.00537C83.4037 3.00537 74.8971 11.512 74.8971 22.0054V27.083C74.8971 32.4496 77.122 37.2965 80.6998 40.7516V76.5345C80.6998 83.1619 86.0724 88.5345 92.6998 88.5345H149.347C155.975 88.5345 161.347 83.1619 161.347 76.5345V40.0496C164.519 36.6545 166.46 32.0954 166.46 27.083V22.0054C166.46 11.512 157.953 3.00537 147.46 3.00537H93.8971Z" fill="#FCC659"/>
<path fill-rule="evenodd" clip-rule="evenodd" d="M100.979 10.9355C92.0709 10.9355 84.8496 18.1569 84.8496 27.0649C84.8496 31.4338 86.5867 35.3971 89.4079 38.3017V68.141C89.4079 73.6639 93.885 78.141 99.4079 78.141H142.044C147.567 78.141 152.044 73.6639 152.044 68.141V37.722C154.547 34.8801 156.066 31.1498 156.066 27.0649C156.066 18.1569 148.845 10.9355 139.937 10.9355H100.979Z" fill="#FFF3DF"/>
<path fill-rule="evenodd" clip-rule="evenodd" d="M76.5137 14.9875C66.0267 15.3543 57.8188 24.1532 58.1809 34.6403L58.356 39.7146C58.5412 45.078 60.932 49.8443 64.6269 53.1723L65.8614 88.9335C66.0901 95.557 71.6448 100.739 78.2681 100.507L134.882 98.5266C141.505 98.2949 146.689 92.7377 146.46 86.1142L145.202 49.6514C148.254 46.1474 150.036 41.5232 149.863 36.5137L149.688 31.4395C149.326 20.9523 140.531 12.7482 130.044 13.115L76.5137 14.9875Z" fill="#FFD262"/>
<path fill-rule="evenodd" clip-rule="evenodd" d="M83.8648 22.6649C74.9623 22.9763 67.9946 30.4458 68.3019 39.3484C68.4527 43.7147 70.3254 47.6149 73.2452 50.4191L74.2747 80.2403C74.4652 85.7599 79.0941 90.0778 84.6136 89.8848L127.224 88.3943C132.744 88.2012 137.064 83.5702 136.873 78.0507L135.823 47.6501C138.227 44.7225 139.616 40.9413 139.475 36.8588C139.168 27.9562 131.702 20.9916 122.8 21.303L83.8648 22.6649Z" fill="#FFF3DF"/>
<path fill-rule="evenodd" clip-rule="evenodd" d="M58.9022 29.9802C48.4628 31.0435 40.8509 40.3694 41.9004 50.8102L42.408 55.8595C42.9448 61.1994 45.6433 65.7967 49.5485 68.8719L53.1272 104.472C53.7901 111.066 59.6724 115.868 66.2657 115.196L122.627 109.455C129.22 108.784 134.028 102.894 133.365 96.2996L129.716 60.0008C132.532 56.3012 134.007 51.5682 133.505 46.5807L132.998 41.5314C131.948 31.0907 122.635 23.4887 112.195 24.552L58.9022 29.9802Z" fill="#FFD262"/>
<path fill-rule="evenodd" clip-rule="evenodd" d="M66.7402 37.1523C57.8787 38.0549 51.4172 45.9712 52.3081 54.8339C52.7451 59.181 54.8698 62.9484 57.9672 65.5524L60.9514 95.2388C61.5038 100.734 66.4057 104.735 71.9002 104.175L114.321 99.8546C119.815 99.295 123.822 94.3866 123.269 88.8914L120.227 58.6282C122.434 55.547 123.571 51.6816 123.163 47.617C122.272 38.7543 114.366 32.3014 105.504 33.204L66.7402 37.1523Z" fill="#FFF3DF"/>
<path d="M89.8258 55.0996L76.8876 66.1195" stroke="#FFD262" stroke-width="10" stroke-linecap="round"/>
<path d="M103.759 63.1138L83.8544 80.1445" stroke="#FFD262" stroke-width="10" stroke-linecap="round"/>
<defs>
<filter id="filter0_f_736_907" x="0.0634766" y="3.07764" width="229.287" height="155.135" filterUnits="userSpaceOnUse" color-interpolation-filters="sRGB">
<feFlood flood-opacity="0" result="BackgroundImageFix"/>
<feBlend mode="normal" in="SourceGraphic" in2="BackgroundImageFix" result="shape"/>
<feGaussianBlur stdDeviation="20" result="effect1_foregroundBlur_736_907"/>
</filter>
</defs>
</svg>
